<?xml version="1.0" encoding="utf-8"?>
<!-- Generator: Adobe Illustrator 19.2.1, SVG Export Plug-In . SVG Version: 6.00 Build 0)  -->
<svg version="1.1" id="Layer_1" xmlns="http://www.w3.org/2000/svg" xmlns:xlink="http://www.w3.org/1999/xlink" x="0px" y="0px"
	 width="40px" height="40px" viewBox="0 0 40 40" enable-background="new 0 0 40 40" xml:space="preserve">
<path fill="#1D3746" d="M20,0C8.972,0,0,8.972,0,20c0,11.028,8.972,20,20,20c11.028,0,20-8.972,20-20C40,8.972,31.028,0,20,0z"/>
<path fill="#FFFFFF" d="M16.554,30.27c-0.951,0-1.715-0.321-2.557-1.072l-6.19-6.173c-0.799-0.808-1.202-1.71-1.202-2.681
	c0-1.982,1.613-3.595,3.595-3.595c0.993,0,1.903,0.396,2.632,1.146l3.683,3.797l10.728-10.893c0.702-0.699,1.603-1.07,2.559-1.07
	c1.982,0,3.595,1.613,3.595,3.595c0,0.894-0.331,1.751-0.931,2.414c-1.778,1.793-3.907,3.958-5.948,6.033
	c-5.621,5.716-7.101,7.203-7.537,7.554l0.001,0.001C18.232,29.953,17.415,30.27,16.554,30.27z M10.199,18.288
	c-1.134,0-2.056,0.922-2.056,2.056c0,0.56,0.247,1.082,0.754,1.596l6.155,6.14c0.525,0.468,0.941,0.652,1.502,0.652
	c0.497,0,0.969-0.191,1.44-0.586c0.018-0.015,0.037-0.029,0.056-0.042c0.437-0.363,4.119-4.106,7.37-7.412
	c2.041-2.076,4.173-4.243,5.928-6.013c0.32-0.354,0.509-0.844,0.509-1.356c0-1.134-0.922-2.056-2.056-2.056
	c-0.547,0-1.063,0.213-1.45,0.599L17.058,23.333c-0.144,0.146-0.342,0.229-0.548,0.229c-0.001,0-0.002,0-0.003,0
	c-0.207-0.001-0.405-0.085-0.549-0.233l-4.231-4.362C11.289,18.517,10.775,18.288,10.199,18.288z"/>
</svg>
