<?xml version="1.0" encoding="utf-8"?>
<!-- Generator: Adobe Illustrator 19.2.1, SVG Export Plug-In . SVG Version: 6.00 Build 0)  -->
<svg version="1.1" id="Layer_1" xmlns="http://www.w3.org/2000/svg" xmlns:xlink="http://www.w3.org/1999/xlink" x="0px" y="0px"
	 width="40px" height="40px" viewBox="0 0 40 40" enable-background="new 0 0 40 40" xml:space="preserve">
<path fill="#1D3746" d="M20,0C8.972,0,0,8.972,0,20s8.972,20,20,20c11.028,0,20-8.971,20-20S31.028,0,20,0z"/>
<path fill="#FFFFFF" d="M10.769,20.74c-0.425,0-0.769-0.345-0.769-0.769c0-5.514,4.486-10,10-10c0.425,0,0.769,0.345,0.769,0.769
	c0,0.425-0.345,0.769-0.769,0.769c-4.665,0-8.462,3.796-8.462,8.462C11.538,20.396,11.194,20.74,10.769,20.74z"/>
<path fill="#FFFFFF" d="M20,29.97c-0.425,0-0.769-0.345-0.769-0.769c0-0.425,0.345-0.769,0.769-0.769
	c4.665,0,8.462-3.796,8.462-8.461c0-0.425,0.345-0.769,0.769-0.769c0.425,0,0.769,0.345,0.769,0.769
	C30,25.484,25.514,29.97,20,29.97z"/>
<path fill="#FFFFFF" d="M20,14.875c-0.123,0-0.246-0.03-0.359-0.089c-0.252-0.133-0.411-0.395-0.411-0.681V7.374
	c0-0.286,0.159-0.548,0.412-0.681c0.253-0.133,0.559-0.115,0.794,0.048l4.896,3.377c0.208,0.144,0.333,0.381,0.333,0.635
	c0,0.253-0.125,0.49-0.335,0.633l-4.896,3.354C20.304,14.83,20.152,14.875,20,14.875z M20.769,8.84v3.807l2.768-1.897L20.769,8.84z"
	/>
<path fill="#FFFFFF" d="M20,33.337c-0.153,0-0.306-0.046-0.437-0.136l-4.895-3.378c-0.209-0.144-0.333-0.381-0.333-0.634
	c0.001-0.253,0.126-0.491,0.335-0.634l4.895-3.353c0.236-0.161,0.541-0.179,0.793-0.045c0.252,0.132,0.411,0.395,0.411,0.68v6.732
	c0,0.285-0.159,0.548-0.412,0.681C20.245,33.308,20.122,33.337,20,33.337z M16.462,29.191l2.768,1.911v-3.807L16.462,29.191z"/>
</svg>
