<?xml version="1.0" encoding="utf-8"?>
<!-- Generator: Adobe Illustrator 19.2.1, SVG Export Plug-In . SVG Version: 6.00 Build 0)  -->
<svg version="1.1" id="Layer_1" xmlns="http://www.w3.org/2000/svg" xmlns:xlink="http://www.w3.org/1999/xlink" x="0px" y="0px"
	 width="40px" height="40px" viewBox="0 0 40 40" enable-background="new 0 0 40 40" xml:space="preserve">
<path fill="#1D3746" d="M20,0C8.972,0,0,8.972,0,20c0,11.028,8.972,20,20,20c11.028,0,20-8.972,20-20C40,8.972,31.028,0,20,0z"/>
<path fill="#FFFFFF" d="M32.27,17.171c-0.09-0.278-0.331-0.481-0.621-0.523l-7.572-1.1L20.69,8.685
	c-0.258-0.525-1.121-0.525-1.379,0l-3.387,6.862l-7.573,1.1c-0.289,0.042-0.53,0.245-0.621,0.523
	c-0.09,0.278-0.015,0.584,0.195,0.789l5.48,5.341l-1.294,7.542c-0.05,0.288,0.069,0.58,0.306,0.752
	c0.238,0.174,0.551,0.194,0.81,0.059L20,28.094l6.774,3.561c0.112,0.059,0.235,0.088,0.358,0.088c0.159,0,0.319-0.049,0.452-0.147
	c0.237-0.172,0.356-0.464,0.306-0.752l-1.294-7.542l5.48-5.341C32.285,17.756,32.361,17.45,32.27,17.171z"/>
</svg>
