<?xml version="1.0" encoding="utf-8"?>
<!-- Generator: Adobe Illustrator 19.2.1, SVG Export Plug-In . SVG Version: 6.00 Build 0)  -->
<svg version="1.1" id="Layer_1" xmlns="http://www.w3.org/2000/svg" xmlns:xlink="http://www.w3.org/1999/xlink" x="0px" y="0px"
	 width="40px" height="40px" viewBox="0 0 40 40" enable-background="new 0 0 40 40" xml:space="preserve">
<path fill="#1D3746" d="M20,0C8.972,0,0,8.972,0,20c0,11.028,8.972,20,20,20c11.028,0,20-8.972,20-20C40,8.972,31.028,0,20,0z"/>
<path fill="#FFFFFF" d="M27.131,31.743c-0.122,0-0.245-0.029-0.358-0.088L20,28.094l-6.773,3.561
	c-0.259,0.135-0.572,0.115-0.81-0.059c-0.237-0.172-0.356-0.464-0.306-0.752l1.294-7.542l-5.48-5.341
	c-0.21-0.204-0.285-0.51-0.195-0.789c0.091-0.278,0.332-0.481,0.621-0.523l7.573-1.1l3.387-6.862c0.258-0.525,1.121-0.525,1.379,0
	l3.387,6.862l7.572,1.1c0.29,0.042,0.531,0.245,0.621,0.523c0.091,0.278,0.015,0.584-0.194,0.789l-5.48,5.341l1.294,7.542
	c0.049,0.288-0.069,0.58-0.306,0.752C27.45,31.694,27.291,31.743,27.131,31.743z M20,26.455c0.123,0,0.246,0.029,0.358,0.088
	l5.752,3.024l-1.099-6.404c-0.043-0.249,0.04-0.505,0.221-0.681l4.653-4.535l-6.43-0.934c-0.251-0.037-0.468-0.194-0.58-0.421
	L20,10.764l-2.876,5.827c-0.112,0.227-0.329,0.384-0.579,0.421l-6.43,0.934l4.653,4.535c0.181,0.176,0.264,0.432,0.221,0.681
	l-1.099,6.404l5.752-3.024C19.754,26.484,19.877,26.455,20,26.455z"/>
</svg>
