<?xml version="1.0" encoding="utf-8"?>
<!-- Generator: Adobe Illustrator 17.0.0, SVG Export Plug-In . SVG Version: 6.00 Build 0)  -->
<!DOCTYPE svg PUBLIC "-//W3C//DTD SVG 1.1//EN" "http://www.w3.org/Graphics/SVG/1.1/DTD/svg11.dtd">
<svg version="1.1" id="Layer_1" xmlns="http://www.w3.org/2000/svg" xmlns:xlink="http://www.w3.org/1999/xlink" x="0px" y="0px"
	 width="25.5px" height="25.05px" viewBox="2.35 2.45 25.5 25.05" enable-background="new 2.35 2.45 25.5 25.05"
	 xml:space="preserve">
<path id="XMLID_34_" d="M15.8,15L27.6,3.3c0.2-0.2,0.2-0.5,0-0.7s-0.5-0.2-0.7,0L15.1,14.2L3.5,2.7C3.3,2.5,3,2.5,2.8,2.7
	s-0.2,0.5,0,0.7L14.4,15L2.5,26.7c-0.2,0.2-0.2,0.5,0,0.7c0.1,0.1,0.2,0.1,0.4,0.1c0.1,0,0.3,0,0.4-0.1l11.9-11.7l11.7,11.7
	c0.1,0.1,0.2,0.1,0.4,0.1s0.3,0,0.4-0.1c0.2-0.2,0.2-0.5,0-0.7L15.8,15z"/>
</svg>
