<?xml version="1.0" encoding="utf-8"?>
<!-- Generator: Adobe Illustrator 17.0.0, SVG Export Plug-In . SVG Version: 6.00 Build 0)  -->
<!DOCTYPE svg PUBLIC "-//W3C//DTD SVG 1.1//EN" "http://www.w3.org/Graphics/SVG/1.1/DTD/svg11.dtd">
<svg version="1.1" id="Layer_1" xmlns="http://www.w3.org/2000/svg" xmlns:xlink="http://www.w3.org/1999/xlink" x="0px" y="0px"
	 width="26px" height="26px" viewBox="2 2 26 26" enable-background="new 2 2 26 26" xml:space="preserve">
<path id="XMLID_44_" fill="#B0CC59" d="M15,2C7.8,2,2,7.9,2,15s5.8,13,13,13s13-5.8,13-13S22.2,2,15,2z"/>
<circle id="XMLID_29_" fill="#FFFFFF" cx="21.7" cy="11.5" r="1.3"/>
<circle id="XMLID_32_" fill="#FFFFFF" cx="8.3" cy="11.5" r="1.3"/>
<path id="XMLID_33_" fill="#FFFFFF" d="M21.2,14.8c-0.3,0-0.5,0.2-0.5,0.5c0,3.1-2.5,5.7-5.7,5.7c-3.1,0-5.7-2.5-5.7-5.7
	c0-0.3-0.2-0.5-0.5-0.5S8.3,15,8.3,15.3c0,3.7,3,6.7,6.7,6.7s6.7-3,6.7-6.7C21.7,15.1,21.4,14.8,21.2,14.8z"/>
</svg>
