<?xml version="1.0" encoding="utf-8"?>
<!-- Generator: Adobe Illustrator 17.0.0, SVG Export Plug-In . SVG Version: 6.00 Build 0)  -->
<!DOCTYPE svg PUBLIC "-//W3C//DTD SVG 1.1//EN" "http://www.w3.org/Graphics/SVG/1.1/DTD/svg11.dtd">
<svg version="1.1" id="Layer_1" xmlns="http://www.w3.org/2000/svg" xmlns:xlink="http://www.w3.org/1999/xlink" x="0px" y="0px"
	 width="23.6px" height="22.6px" viewBox="3.3 4 23.6 22.6" enable-background="new 3.3 4 23.6 22.6" xml:space="preserve">
<path id="XMLID_16_" d="M23.4,4.7h-6C17.4,4.3,17,4,16.6,4h-3.1c-0.4,0-0.8,0.3-0.9,0.8H6.8c-2.1,0-3.5,1.4-3.5,3.5
	c0,0.3,0.2,0.5,0.5,0.5h22.6c0.3,0,0.5-0.2,0.5-0.5C26.9,6.1,25.5,4.7,23.4,4.7z M4.3,7.7c0.2-1.5,1.4-2,2.5-2h6.7l0,0h3.1l0,0h6.8
	c1.1,0,2.3,0.5,2.5,2H4.3z"/>
<path id="XMLID_8_" d="M22.1,26.6H7.9c-1.6,0-2.9-1.3-2.9-2.9V8.2c0-0.3,0.2-0.5,0.5-0.5S6,7.9,6,8.2v15.6c0,1,0.8,1.9,1.9,1.9h14.2
	c1,0,1.9-0.8,1.9-1.9V8.2c0-0.3,0.2-0.5,0.5-0.5S25,7.9,25,8.2v15.6C25,25.3,23.7,26.6,22.1,26.6z"/>
<path id="XMLID_4_" d="M15.1,23.7c-0.3,0-0.5-0.2-0.5-0.5v-12c0-0.3,0.2-0.5,0.5-0.5s0.5,0.2,0.5,0.5v12
	C15.6,23.5,15.3,23.7,15.1,23.7z"/>
<path id="XMLID_3_" d="M10.3,23.7c-0.3,0-0.5-0.2-0.5-0.5v-12c0-0.3,0.2-0.5,0.5-0.5s0.5,0.2,0.5,0.5v12
	C10.8,23.5,10.6,23.7,10.3,23.7z"/>
<path id="XMLID_2_" d="M19.8,23.7c-0.3,0-0.5-0.2-0.5-0.5v-12c0-0.3,0.2-0.5,0.5-0.5s0.5,0.2,0.5,0.5v12
	C20.3,23.5,20.1,23.7,19.8,23.7z"/>
</svg>
