<?xml version="1.0" encoding="utf-8"?>
<!-- Generator: Adobe Illustrator 17.0.0, SVG Export Plug-In . SVG Version: 6.00 Build 0)  -->
<!DOCTYPE svg PUBLIC "-//W3C//DTD SVG 1.1//EN" "http://www.w3.org/Graphics/SVG/1.1/DTD/svg11.dtd">
<svg version="1.1" id="Layer_1" xmlns="http://www.w3.org/2000/svg" xmlns:xlink="http://www.w3.org/1999/xlink" x="0px" y="0px"
	 width="25.141px" height="25.05px" viewBox="2.359 2.45 25.141 25.05" enable-background="new 2.359 2.45 25.141 25.05"
	 xml:space="preserve">
<g id="XMLID_12_">
	<path id="XMLID_21_" d="M27.5,8.4c0-0.1-0.1-0.3-0.1-0.4L22,2.6c-0.2-0.2-0.5-0.2-0.7,0L5.5,18.4c-0.1,0-0.2,0.1-0.2,0.2l-0.1,0.1
		c-0.1,0.1-0.1,0.1-0.1,0.2l-2.7,7.9c-0.1,0.2,0,0.4,0.1,0.5s0.2,0.1,0.4,0.1c0.1,0,0.1,0,0.2,0l8-2.6c0.1,0,0.1-0.1,0.2-0.1
		l16.1-16C27.5,8.6,27.5,8.5,27.5,8.4z M10.7,24L10.7,24l-3.4,1.1c0-0.1,0-0.1-0.1-0.2L5,22.7c0,0-0.1,0-0.1-0.1L6,19.4l0,0l2.5-0.2
		l-0.6,2.2c0,0.2,0,0.3,0.1,0.4C8.1,21.9,8.3,22,8.5,22l2.8-0.1L10.7,24z M12.1,22.6l0.3-1.2c0-0.2,0-0.3-0.1-0.4s-0.3-0.2-0.4-0.2
		l-2.8,0.1l0.6-2.2c0-0.2,0-0.3-0.1-0.4s-0.3-0.2-0.4-0.2l-2,0.2L19.4,6l4.7,4.7L12.1,22.6z M24.7,9.9L20,5.2l1.6-1.6l4.7,4.7
		L24.7,9.9z"/>
	<path id="XMLID_24_" d="M12.4,17.5c0.1,0.1,0.2,0.1,0.4,0.1s0.3,0,0.4-0.1l7.1-7.1c0.2-0.2,0.2-0.5,0-0.7s-0.5-0.2-0.7,0l-7.1,7.1
		C12.2,17,12.2,17.3,12.4,17.5z"/>
	<path id="XMLID_25_" d="M27,26.5H12.7c-0.3,0-0.5,0.2-0.5,0.5s0.2,0.5,0.5,0.5H27c0.3,0,0.5-0.2,0.5-0.5S27.3,26.5,27,26.5z"/>
</g>
</svg>
