<?xml version="1.0" encoding="iso-8859-1"?>
<!-- Generator: Adobe Illustrator 17.0.0, SVG Export Plug-In . SVG Version: 6.00 Build 0)  -->
<!DOCTYPE svg PUBLIC "-//W3C//DTD SVG 1.1//EN" "http://www.w3.org/Graphics/SVG/1.1/DTD/svg11.dtd">
<svg version="1.1" id="Layer_1" xmlns="http://www.w3.org/2000/svg" xmlns:xlink="http://www.w3.org/1999/xlink" x="0px" y="0px"
	 width="100px" height="100px" viewBox="0 0 100 100" style="enable-background:new 0 0 100 100;" xml:space="preserve">
<path style="fill:#EF3B39;" d="M0,0v100h100V0H0z"/>
<path style="fill:#AD1E23;" d="M33.197,29.608c-7.145,0-10.443,4.562-10.443,10.169v20.447c0,5.607,3.298,10.168,10.443,10.168
	c6.816,0,10.113-4.562,10.113-10.168v-4.562h-6.815v4.782c0,2.584-0.824,4.013-3.298,4.013c-2.748,0-3.628-1.429-3.628-4.398V39.941
	c0-2.968,0.88-4.397,3.628-4.397c1.759,0,3.298,1.429,3.298,4.782v3.078h6.815v-2.913C43.31,34.555,40.013,29.608,33.197,29.608z"/>
<polygon style="fill:#AD1E23;" points="63.45,53.902 63.341,53.902 58.504,30.707 49.544,30.707 49.544,70.392 55.48,70.392 
	55.48,39.392 55.59,39.392 61.746,70.392 65.044,70.392 71.2,39.392 71.31,39.392 71.31,70.392 77.246,70.392 77.246,30.707 
	68.287,30.707 "/>
</svg>
