<svg xmlns="http://www.w3.org/2000/svg" width="23.464" height="24.937" viewBox="-586.001 768.126 23.464 24.937"><path fill="#373737" d="M-570.592 784.52a.5.5 0 0 0-.5.5v5.158c0 1.04-.846 1.885-1.885 1.885h-10.14a1.888 1.888 0 0 1-1.884-1.885V771.01c0-1.038.845-1.884 1.884-1.884h10.138c1.04 0 1.885.846 1.885 1.885v5.165a.5.5 0 0 0 1 0v-5.164a2.888 2.888 0 0 0-2.885-2.884h-10.138A2.888 2.888 0 0 0-586 771.01v19.168a2.888 2.888 0 0 0 2.884 2.885h10.14a2.888 2.888 0 0 0 2.884-2.885v-5.16a.5.5 0 0 0-.5-.5z"/><path fill="#373737" d="M-562.682 780.284l-4.402-4.46a.5.5 0 1 0-.71.702l3.564 3.612h-10.038a.5.5 0 0 0 0 1h10.02l-3.533 3.527a.5.5 0 0 0 .707.707l4.39-4.383a.5.5 0 0 0 0-.706z"/></svg>