<svg version="1.1" id="Layer_1" xmlns="http://www.w3.org/2000/svg" xmlns:xlink="http://www.w3.org/1999/xlink" x="0px" y="0px"
	 viewBox="0 0 466.26 100" enable-background="new 0 0 466.26 100" xml:space="preserve">
<rect id="bg" width="466.26" height="100"/>
<g id="txt">
	<path fill="#FFFFFF" d="M112.85,42.31h2.35c2.15,0,3.52,0.85,3.52,3.3c0,2.68-2.15,3.5-4.18,3.5h-1.69L112.85,42.31 M109.96,60.02
		h2.89v-8.59h1.65c2.8,0,3.14,1.3,3.95,4.17l1.22,4.43h2.64l-1.19-5.56c-0.43-2.08-0.73-3.82-3.45-4.4V50
		c2.03-0.49,3.94-1.6,3.94-4.74c0-3.93-2.72-5.26-5.86-5.26h-5.8L109.96,60.02L109.96,60.02z"/>
	<rect x="135.54" y="39.99" fill="#FFFFFF" width="2.89" height="20.03"/>
	<polyline fill="#FFFFFF" points="155.67,42.31 150.68,42.31 150.68,39.99 163.55,39.99 163.55,42.31 158.57,42.31 158.57,60.02 
		155.67,60.02 155.67,42.31 	"/>
	<rect x="175.83" y="39.99" fill="#FFFFFF" width="2.9" height="20.03"/>
	<path fill="#FFFFFF" d="M225.34,42.66h0.06l2.75,9.29h-5.71L225.34,42.66 M216.76,60.02h3.08l1.94-5.74h7.16l1.97,5.74h3.07
		l-6.84-20.03h-3.56L216.76,60.02z"/>
	<polyline fill="#FFFFFF" points="246.5,39.99 249.4,39.99 249.4,57.69 257.09,57.69 257.09,60.02 246.5,60.02 246.5,39.99 	"/>
	<polyline fill="#FFFFFF" points="283.87,39.99 287.94,39.99 293.64,56.4 293.7,56.4 299.39,39.99 303.43,39.99 303.43,60.02 
		300.84,60.02 300.84,43.4 300.78,43.4 295.03,60.02 292.27,60.02 286.52,43.4 286.46,43.4 286.46,60.02 283.87,60.02 283.87,39.99 
			"/>
	<path fill="#FFFFFF" d="M324.54,42.66h0.06l2.75,9.29h-5.71L324.54,42.66 M315.96,60.02h3.07l1.95-5.74h7.16l1.97,5.74h3.07
		l-6.85-20.03h-3.57L315.96,60.02z"/>
	<path fill="#FFFFFF" d="M352.94,49.14c1.94,1.1,4.2,2.34,4.2,5.5c0,3.86-3.11,5.69-7.21,5.69c-2.38,0-4.46-0.58-5.07-0.78v-3.02
		c1.16,0.67,3.07,1.48,5.3,1.48c1.88,0,3.79-0.78,3.79-2.95c0-2.08-1.68-2.92-3.23-3.85l-1.83-1.07c-1.85-1.07-4.35-2.2-4.35-5.27
		c0-3.57,2.9-5.16,6.63-5.16c1.91,0,3.88,0.41,4.55,0.58V43c-0.38-0.12-2.67-0.99-4.69-0.99c-1.97,0-3.3,0.93-3.3,2.61
		c0,1.56,1.76,2.51,3.24,3.35L352.94,49.14"/>
	<path fill="#FFFFFF" d="M377.41,49.14c1.94,1.1,4.2,2.34,4.2,5.5c0,3.86-3.11,5.69-7.21,5.69c-2.37,0-4.46-0.58-5.07-0.78v-3.02
		c1.16,0.67,3.07,1.48,5.3,1.48c1.88,0,3.79-0.78,3.79-2.95c0-2.08-1.68-2.92-3.24-3.85l-1.82-1.07c-1.85-1.07-4.35-2.2-4.35-5.27
		c0-3.57,2.9-5.16,6.64-5.16c1.91,0,3.88,0.41,4.55,0.58V43c-0.38-0.12-2.67-0.99-4.69-0.99c-1.97,0-3.3,0.93-3.3,2.61
		c0,1.56,1.77,2.51,3.24,3.35L377.41,49.14"/>
	<path fill="#FFFFFF" d="M92.03,41.96c2.47,0,4.15,1.24,4.67,1.56v-2.69c-0.84-0.38-2.9-1.2-5.25-1.2c-4.35,0-7.88,2.67-7.98,10.23
		c0.05,7.7,3.59,10.4,7.98,10.4c2.35,0,4.42-0.82,5.25-1.19v-2.69c-0.52,0.32-2.2,1.56-4.67,1.56c-3.99,0-5.27-3.38-5.37-8.07l0,0
		C86.78,45.27,88.09,41.96,92.03,41.96"/>
	<path fill="#FFFFFF" d="M200.93,41.96c2.47,0,4.15,1.24,4.67,1.56v-2.69c-0.84-0.38-2.9-1.2-5.25-1.2c-4.36,0-7.88,2.67-7.98,10.23
		h-0.01c0.05,7.7,3.6,10.4,7.99,10.4c2.35,0,4.41-0.82,5.25-1.19v-2.69c-0.52,0.32-2.2,1.56-4.67,1.56c-3.98,0-5.27-3.38-5.37-8.07
		h0.01C195.69,45.27,197,41.96,200.93,41.96"/>
</g>
</svg>