<?xml version="1.0" encoding="utf-8"?>
<!-- Generator: Adobe Illustrator 17.0.0, SVG Export Plug-In . SVG Version: 6.00 Build 0)  -->
<!DOCTYPE svg PUBLIC "-//W3C//DTD SVG 1.1//EN" "http://www.w3.org/Graphics/SVG/1.1/DTD/svg11.dtd">
<svg version="1.1" id="Layer_1" xmlns="http://www.w3.org/2000/svg" xmlns:xlink="http://www.w3.org/1999/xlink" x="0px" y="0px"
	 width="25px" height="23.7px" viewBox="2.5 3.8 25 23.7" enable-background="new 2.5 3.8 25 23.7" xml:space="preserve">
<path id="XMLID_5_" d="M25.1,24.2c-1.4,0-2.5-1.1-2.5-2.5v-7.4c0-4.2-3.4-7.6-7.6-7.6s-7.6,3.4-7.6,7.6v7.4c0,1.4-1.1,2.5-2.5,2.5
	c-0.3,0-0.5-0.2-0.5-0.5s0.2-0.5,0.5-0.5c0.8,0,1.5-0.7,1.5-1.5v-7.4c0-4.7,3.8-8.6,8.6-8.6s8.6,3.8,8.6,8.6v7.4
	c0,0.8,0.7,1.5,1.5,1.5c0.3,0,0.5,0.2,0.5,0.5S25.4,24.2,25.1,24.2z"/>
<path id="XMLID_4_" d="M27,24.2H3c-0.3,0-0.5-0.2-0.5-0.5s0.2-0.5,0.5-0.5h24c0.3,0,0.5,0.2,0.5,0.5S27.3,24.2,27,24.2z"/>
<path id="XMLID_3_" d="M17,27.5h-4c-0.3,0-0.5-0.2-0.5-0.5s0.2-0.5,0.5-0.5h4c0.3,0,0.5,0.2,0.5,0.5S17.3,27.5,17,27.5z"/>
<path id="XMLID_2_" d="M15,6.8c-0.3,0-0.5-0.2-0.5-0.5v-2c0-0.3,0.2-0.5,0.5-0.5s0.5,0.2,0.5,0.5v2C15.5,6.6,15.3,6.8,15,6.8z"/>
</svg>
