<?xml version="1.0" encoding="utf-8"?>
<!-- Generator: Adobe Illustrator 17.0.0, SVG Export Plug-In . SVG Version: 6.00 Build 0)  -->
<!DOCTYPE svg PUBLIC "-//W3C//DTD SVG 1.1//EN" "http://www.w3.org/Graphics/SVG/1.1/DTD/svg11.dtd">
<svg version="1.1" id="Layer_1" xmlns="http://www.w3.org/2000/svg" xmlns:xlink="http://www.w3.org/1999/xlink" x="0px" y="0px"
	 width="26px" height="28.5px" viewBox="2 0.7 26 28.5" enable-background="new 2 0.7 26 28.5" xml:space="preserve">
<g id="XMLID_53_">
	<path id="XMLID_58_" d="M15,15.7c-7.2,0-13,5.8-13,13c0,0.3,0.2,0.5,0.5,0.5S3,29,3,28.7c0-6.6,5.4-12,12-12s12,5.4,12,12
		c0,0.3,0.2,0.5,0.5,0.5S28,29,28,28.7C28,21.6,22.2,15.7,15,15.7z"/>
	<path id="XMLID_61_" d="M15,14.1c3.7,0,6.7-3,6.7-6.7s-3-6.7-6.7-6.7s-6.7,3-6.7,6.7C8.3,11.1,11.3,14.1,15,14.1z M15,1.8
		c3.1,0,5.7,2.5,5.7,5.7c0,3.1-2.5,5.7-5.7,5.7c-3.1,0-5.7-2.5-5.7-5.7C9.3,4.3,11.9,1.8,15,1.8z"/>
</g>
</svg>
