<?xml version="1.0" encoding="utf-8"?>
<!-- Generator: Adobe Illustrator 17.0.0, SVG Export Plug-In . SVG Version: 6.00 Build 0)  -->
<!DOCTYPE svg PUBLIC "-//W3C//DTD SVG 1.1//EN" "http://www.w3.org/Graphics/SVG/1.1/DTD/svg11.dtd">
<svg version="1.1" id="Layer_1" xmlns="http://www.w3.org/2000/svg" xmlns:xlink="http://www.w3.org/1999/xlink" x="0px" y="0px"
	 width="25.266px" height="25.1px" viewBox="2.3 2.3 25.266 25.1" enable-background="new 2.3 2.3 25.266 25.1"
	 xml:space="preserve">
<g id="XMLID_1_">
	<path id="XMLID_11_" d="M12.2,5.5c-3.8,0-6.8,3.1-6.8,6.8s3.1,6.8,6.8,6.8S19,16,19,12.3S16,5.5,12.2,5.5z M12.2,18.1
		c-3.2,0-5.8-2.6-5.8-5.8S9,6.5,12.2,6.5S18,9.1,18,12.3S15.4,18.1,12.2,18.1z"/>
	<path id="XMLID_14_" d="M27.4,24.6l-6.9-6.9c1-1.6,1.6-3.4,1.6-5.5c0-5.5-4.5-9.9-9.9-9.9s-9.9,4.5-9.9,9.9s4.5,9.9,9.9,9.9
		c2.1,0,4-0.6,5.6-1.7l6.9,6.9c0.1,0.1,0.2,0.1,0.4,0.1s0.3-0.1,0.4-0.1l2-2C27.6,25.1,27.6,24.8,27.4,24.6z M3.3,12.3
		c0-4.9,4-8.9,8.9-8.9s8.9,4,8.9,8.9s-4,8.9-8.9,8.9S3.3,17.2,3.3,12.3z M25,26.3l-6.4-6.4c0.5-0.4,0.9-0.8,1.3-1.3l6.4,6.4L25,26.3
		z"/>
</g>
</svg>
