<?xml version="1.0" encoding="utf-8"?>
<!-- Generator: Adobe Illustrator 17.0.0, SVG Export Plug-In . SVG Version: 6.00 Build 0)  -->
<!DOCTYPE svg PUBLIC "-//W3C//DTD SVG 1.1//EN" "http://www.w3.org/Graphics/SVG/1.1/DTD/svg11.dtd">
<svg version="1.1" id="Layer_1" xmlns="http://www.w3.org/2000/svg" xmlns:xlink="http://www.w3.org/1999/xlink" x="0px" y="0px"
	 width="26px" height="26px" viewBox="2 2 26 26" enable-background="new 2 2 26 26" xml:space="preserve">
<path id="XMLID_15_" fill="#1D3746" d="M15,2C7.8,2,2,7.9,2,15c0,7.2,5.8,13,13,13s13-5.8,13-13C28,7.9,22.2,2,15,2z"/>
<path id="XMLID_9_" fill="#FFFFFF" d="M9,15.5c-0.3,0-0.5-0.2-0.5-0.5c0-3.6,2.9-6.5,6.5-6.5c0.3,0,0.5,0.2,0.5,0.5S15.3,9.5,15,9.5
	c-3,0-5.5,2.5-5.5,5.5C9.5,15.3,9.3,15.5,9,15.5z"/>
<path id="XMLID_8_" fill="#FFFFFF" d="M15,21.5c-0.3,0-0.5-0.2-0.5-0.5s0.2-0.5,0.5-0.5c3,0,5.5-2.5,5.5-5.5c0-0.3,0.2-0.5,0.5-0.5
	s0.5,0.2,0.5,0.5C21.5,18.6,18.6,21.5,15,21.5z"/>
<path id="XMLID_5_" fill="#FFFFFF" d="M15,11.7c-0.1,0-0.2,0-0.2-0.1c-0.2-0.1-0.3-0.3-0.3-0.4V6.8c0-0.2,0.1-0.4,0.3-0.4
	c0.2-0.1,0.4-0.1,0.5,0l3.2,2.2c0.1,0.1,0.2,0.2,0.2,0.4s-0.1,0.3-0.2,0.4l-3.2,2.2C15.2,11.7,15.1,11.7,15,11.7z M15.5,7.8v2.5
	L17.3,9L15.5,7.8z"/>
<path id="XMLID_2_" fill="#FFFFFF" d="M15,23.7c-0.1,0-0.2,0-0.3-0.1l-3.2-2.2c-0.1-0.1-0.2-0.2-0.2-0.4c0-0.2,0.1-0.3,0.2-0.4
	l3.2-2.2c0.2-0.1,0.4-0.1,0.5,0c0.2,0.1,0.3,0.3,0.3,0.4v4.4c0,0.2-0.1,0.4-0.3,0.4C15.2,23.7,15.1,23.7,15,23.7z M12.7,21l1.8,1.2
	v-2.5L12.7,21z"/>
</svg>
