<?xml version="1.0" encoding="utf-8"?>
<!-- Generator: Adobe Illustrator 17.0.0, SVG Export Plug-In . SVG Version: 6.00 Build 0)  -->
<!DOCTYPE svg PUBLIC "-//W3C//DTD SVG 1.1//EN" "http://www.w3.org/Graphics/SVG/1.1/DTD/svg11.dtd">
<svg version="1.1" id="Layer_1" xmlns="http://www.w3.org/2000/svg" xmlns:xlink="http://www.w3.org/1999/xlink" x="0px" y="0px"
	 width="26px" height="26px" viewBox="2 2 26 26" enable-background="new 2 2 26 26" xml:space="preserve">
<path id="XMLID_10_" fill="#1D3746" d="M15,2C7.8,2,2,7.8,2,15s5.8,13,13,13s13-5.8,13-13S22.2,2,15,2z"/>
<path id="XMLID_2_" fill="#FFFFFF" d="M19.6,22.6c-0.1,0-0.2,0-0.2-0.1L15,20.3l-4.4,2.3c-0.2,0.1-0.4,0.1-0.5,0
	c-0.2-0.1-0.2-0.3-0.2-0.5l0.8-4.9l-3.6-3.5C7,13.6,7,13.4,7,13.2c0.1-0.2,0.2-0.3,0.4-0.3l4.9-0.7l2.2-4.5c0.1-0.2,0.3-0.3,0.4-0.3
	l0,0c0.2,0,0.4,0.1,0.4,0.3l2.2,4.5l4.9,0.7c0.2,0,0.3,0.2,0.4,0.3c0.1,0.2,0,0.4-0.1,0.5l-3.6,3.5l0.8,4.9c0,0.2,0,0.4-0.2,0.5
	C19.8,22.6,19.7,22.6,19.6,22.6z M15,19.2c0.1,0,0.2,0,0.2,0.1l3.7,2l-0.7-4.2c0-0.2,0-0.3,0.1-0.4l3-2.9l-4.2-0.6
	c-0.2,0-0.3-0.1-0.4-0.3L15,9l-1.9,3.8c-0.1,0.1-0.2,0.2-0.4,0.3l-4.2,0.6l3,2.9c0.1,0.1,0.2,0.3,0.1,0.4L11,21.2l3.7-2
	C14.8,19.2,14.9,19.2,15,19.2z"/>
</svg>
