<?xml version="1.0" encoding="utf-8"?>
<!-- Generator: Adobe Illustrator 17.0.0, SVG Export Plug-In . SVG Version: 6.00 Build 0)  -->
<!DOCTYPE svg PUBLIC "-//W3C//DTD SVG 1.1//EN" "http://www.w3.org/Graphics/SVG/1.1/DTD/svg11.dtd">
<svg version="1.1" id="Layer_1" xmlns="http://www.w3.org/2000/svg" xmlns:xlink="http://www.w3.org/1999/xlink" x="0px" y="0px"
	 width="26px" height="26px" viewBox="2.1 2 26 26" enable-background="new 2.1 2 26 26" xml:space="preserve">
<path id="XMLID_10_" fill="#1D3746" d="M15.1,2C8,2,2.1,7.8,2.1,15s5.8,13,13,13s13-5.8,13-13S22.3,2,15.1,2z"/>
<path id="XMLID_2_" fill="#FFFFFF" d="M12.9,21.7c-0.6,0-1.1-0.2-1.7-0.7l-4-4c-0.5-0.5-0.8-1.1-0.8-1.7c0-1.3,1-2.3,2.3-2.3
	c0.6,0,1.2,0.3,1.7,0.7l2.4,2.5l7-7.1c0.5-0.5,1-0.7,1.7-0.7c1.3,0,2.3,1,2.3,2.3c0,0.6-0.2,1.1-0.6,1.6c-1.2,1.2-2.6,2.6-3.9,3.9
	c-3.6,3.7-4.6,4.7-4.9,4.9l0,0C14,21.5,13.5,21.7,12.9,21.7z M8.8,13.9c-0.7,0-1.3,0.6-1.3,1.3c0,0.4,0.2,0.7,0.5,1l4,4
	c0.3,0.3,0.6,0.4,1,0.4c0.3,0,0.6-0.1,0.9-0.4l0,0c0.3-0.2,2.7-2.7,4.8-4.8c1.3-1.4,2.7-2.8,3.9-3.9c0.2-0.2,0.3-0.5,0.3-0.9
	c0-0.7-0.6-1.3-1.3-1.3c-0.4,0-0.7,0.1-0.9,0.4l-7.3,7.5c-0.1,0.1-0.2,0.1-0.4,0.1s-0.3-0.1-0.4-0.2l-2.8-2.8
	C9.5,14,9.1,13.9,8.8,13.9z"/>
</svg>
