<?xml version="1.0" encoding="utf-8"?>
<!-- Generator: Adobe Illustrator 17.0.0, SVG Export Plug-In . SVG Version: 6.00 Build 0)  -->
<!DOCTYPE svg PUBLIC "-//W3C//DTD SVG 1.1//EN" "http://www.w3.org/Graphics/SVG/1.1/DTD/svg11.dtd">
<svg version="1.1" id="Layer_1" xmlns="http://www.w3.org/2000/svg" xmlns:xlink="http://www.w3.org/1999/xlink" x="0px" y="0px"
	 width="26px" height="26px" viewBox="2 2 26 26" enable-background="new 2 2 26 26" xml:space="preserve">
<path id="XMLID_18_" fill="#CD0000" d="M15,2C7.8,2,2,7.9,2,15s5.8,13,13,13s13-5.8,13-13S22.2,2,15,2z"/>
<circle id="XMLID_3_" fill="#FFFFFF" cx="21.7" cy="11.5" r="1.3"/>
<circle id="XMLID_6_" fill="#FFFFFF" cx="8.3" cy="11.5" r="1.3"/>
<path id="XMLID_7_" fill="#FFFFFF" d="M15,14.8c-3.7,0-6.7,3-6.7,6.7c0,0.3,0.2,0.5,0.5,0.5s0.5-0.2,0.5-0.5c0-3.1,2.5-5.7,5.7-5.7
	c3.1,0,5.7,2.5,5.7,5.7c0,0.3,0.2,0.5,0.5,0.5s0.5-0.2,0.5-0.5C21.7,17.8,18.7,14.8,15,14.8z"/>
</svg>
